<svg width="93" height="48" viewBox="0 0 93 48" fill="none" xmlns="http://www.w3.org/2000/svg">
<path d="M91.2068 47.9998C90.2167 47.9998 89.4141 47.1947 89.4141 46.2014V13.1724C89.4141 12.1792 90.2167 11.374 91.2068 11.374C92.1969 11.374 92.9995 12.1792 92.9995 13.1724V46.2014C92.9995 47.1947 92.1969 47.9998 91.2068 47.9998Z" fill="white"/>
<path d="M78.3731 47.9999C77.5823 47.9999 76.8846 47.4802 76.6564 46.72L74.5154 39.5827L72.4473 46.7043C72.2253 47.4694 71.5282 47.9963 70.7343 47.9999H70.7263C69.9355 47.9999 69.2376 47.4802 69.0094 46.72L65.1235 33.7672C64.8379 32.8158 65.3753 31.8128 66.3234 31.5266C67.2712 31.2404 68.2716 31.7792 68.5569 32.7303L70.6979 39.8676L72.7657 32.7459C72.988 31.9808 73.6848 31.4539 74.479 31.4503H74.487C75.2778 31.4503 75.9757 31.9701 76.2036 32.7303L78.3449 39.8676L80.4127 32.7459C80.6896 31.7923 81.6846 31.244 82.6352 31.522C83.5859 31.7997 84.1319 32.7981 83.855 33.7515L80.0944 46.7043C79.8724 47.4694 79.1752 47.9963 78.3811 47.9999H78.3731Z" fill="white"/>
<path d="M53.7688 34.6329C51.1491 34.6329 49.0181 36.7707 49.0181 39.3987C49.0181 42.0264 51.1491 44.1647 53.7688 44.1647C56.3885 44.1647 58.5198 42.0264 58.5198 39.3987C58.5198 36.7707 56.3885 34.6329 53.7688 34.6329ZM53.7688 47.7614C49.1723 47.7614 45.4326 44.0097 45.4326 39.3987C45.4326 34.7876 49.1723 31.0361 53.7688 31.0361C58.3654 31.0361 62.1053 34.7876 62.1053 39.3987C62.1053 44.0097 58.3654 47.7614 53.7688 47.7614Z" fill="white"/>
<path d="M37.9632 30.6487C35.8621 29.9787 33.6353 30.2097 31.6922 31.3008C31.4015 31.4639 31.1229 31.6453 30.855 31.8413V30.8843C30.855 29.8911 30.0524 29.0859 29.0623 29.0859C28.0722 29.0859 27.2695 29.8911 27.2695 30.8843V45.9906C27.2695 46.9838 28.0722 47.789 29.0623 47.789C30.0524 47.789 30.855 46.9838 30.855 45.9906V38.0144C31.2942 36.4021 32.2054 35.1344 33.4435 34.4392C34.5114 33.8396 35.7305 33.7111 36.8758 34.0762C38.4593 34.5821 38.6959 35.6645 38.6962 36.2646C38.6962 36.882 38.342 37.6447 37.6648 37.9091C36.7421 38.269 36.2847 39.3113 36.6435 40.2367C36.9193 40.9487 37.597 41.3841 38.3148 41.3841C38.531 41.3841 38.7507 41.3448 38.9641 41.2616C41.2562 40.3675 42.2819 38.1074 42.2817 36.2638C42.2811 34.216 41.1463 31.6653 37.9632 30.6487Z" fill="white"/>
<path d="M38.1268 18.5281V18.5273C55.2144 20.1913 71.0811 12.6789 80.8705 0C79.6878 7.72024 74.4884 14.1122 67.4805 16.9612C70.7185 16.1763 73.7656 14.8999 76.5385 13.2148L76.5382 13.2146C72.5414 18.3729 66.2973 21.692 59.2803 21.692C58.0976 21.692 56.9367 21.5977 55.805 21.416H55.8045C58.3555 22.0694 61.0285 22.4167 63.7826 22.4167C65.7503 22.4167 67.6765 22.2394 69.5465 21.8998C63.6333 25.3034 56.2245 25.8876 49.5547 22.8206C45.1648 20.8018 40.5457 19.9159 36.0239 20.0413L36.0249 20.039C36.2229 20.1726 36.4068 20.3344 36.571 20.5235C37.5839 21.6902 37.4625 23.4595 36.2995 24.4756C35.1368 25.4917 33.3727 25.3699 32.3598 24.2033C31.8568 23.6239 31.6332 22.9948 31.6786 22.1855C31.7221 21.4106 31.9982 17.8807 38.1268 18.5281Z" fill="white"/>
<path d="M13.3881 47.9999C6.00592 47.9999 0 41.7901 0 34.1572C0 26.5243 6.00592 20.3145 13.3881 20.3145C16.8287 20.3145 20.0981 21.6609 22.5944 24.1062C23.3027 24.7999 23.3163 25.9385 22.6246 26.6492C21.9328 27.3598 20.7978 27.3734 20.0897 26.6795C18.267 24.8942 15.887 23.9112 13.3881 23.9112C7.98305 23.9112 3.58547 28.5077 3.58547 34.1572C3.58547 39.8067 7.98305 44.4032 13.3881 44.4032C15.8865 44.4032 18.2662 43.4202 20.0889 41.6357C20.7975 40.9418 21.9323 40.9551 22.6241 41.6663C23.3156 42.3769 23.302 43.5155 22.5933 44.2092C20.0971 46.6537 16.8279 47.9999 13.3881 47.9999Z" fill="white"/>
</svg>
